<svg xmlns="http://www.w3.org/2000/svg" viewBox="0 0 36 36"><rect width="36" height="36" rx="7" fill="#fff"/><g fill="#343e2c" transform="translate(3 2)"><path d="M.6 0H0v31h.6v-1.1l1.62-.8V14.8L.6 14V0zm3.58 0h-.61v31h.61v-1.1l1.61-.8V8.8l-1.61-.8V0zm3.57 0h-.61v31h.61v-1.1l1.61-.8V2.9l-1.61-.8V0zm3.57 0h-.61v31h.61v-1.1l1.62-.8V6.3l-1.62-.8V0zm3.57 0h-.61v31h.61v-1.1l1.61-.8V11.8l-1.61-.8V0zm3.57 0h-.61v31h.61v-1.1l1.62-.8V6.7l-1.62-.8V0zm3.57 0h-.61v31h.61v-1.1l1.62-.8V3.3l-1.62-.8V0zm3.57 0h-.61v31h.61v-1.1l1.62-.8V8.8L25 8V0zm3.57 0h-.61v31h.61v-1.1l1.62-.8V11.8L28.6 11V0z"/></g></svg>