<svg xmlns="http://www.w3.org/2000/svg" viewBox="0 0 94.86 31.02" role="img" aria-labelledby="title"><title id="title">RE:LIM</title><style>.a{fill:#343e2c}</style><g class="a"><path d="M93.06 17.38l-.73-9.62-3.62 9.3-.1.14-1.03-.07-3.66-9.25-.96 9.5h-1.45l1.45-11.9h1.62l3.72 9.13 3.65-9.06 1.69-.07 1.21 11.9h-1.8zM47.62 12.03c3.92-1.07 3.2-6.55-.78-6.55h-4.87v11.9h1.68v-4.93h2.4l3.06 4.93h1.86l-3.37-5.35zm-1.38-.66h-2.58V6.68h2.83c1.17.17 2.1 1.15 2.1 2.34 0 1.3-1.03 2.35-2.3 2.35h-.05zM60.73 5.47v1.2h-5.65v4.09h5.17v1.2h-5.17v4.21h5.89v1.2H53.4V5.47h7.34zM69.5 5.47v10.7h5.53v1.2h-7.21V5.47h1.68zM77.19 5.47h1.68v11.9h-1.68zM63.7 10.41c1.66-.2 1.59 2.53-.22 1.97-.9-.28-.86-1.83.22-1.97z"/><path d="M.6 0H0v31.02h.6v-1.1l1.62-.8V14.83L.6 14.01V0zm3.58 0h-.61v31.02h.61v-1.1l1.61-.8V8.83l-1.61-.79V0zm3.57 0h-.61v31.02h.61v-1.1l1.61-.8V2.86l-1.61-.8V0zm3.57 0h-.61v31.02h.61v-1.1l1.62-.8V6.31l-1.62-.79V0zm3.57 0h-.61v31.02h.61v-1.1l1.61-.8V11.81l-1.61-.82V0zm3.57 0h-.61v31.02h.61v-1.1l1.62-.81V6.73l-1.62-.8V0zm3.57 0h-.61v31.02h.61v-1.1l1.62-.8V3.26l-1.62-.82V0zm3.57 0h-.61v31.02h.61v-1.1l1.62-.8V8.83l-1.62-.79V0zm3.57 0h-.61v31.02h.61v-1.1l1.62-.8V11.8l-1.62-.81V0zm5.19 15.99l-1.62-.8V0h-.61v31.02h.61v-1.1l1.62-.8V15.99z"/></g></svg>